<svg width="338" height="133" viewBox="0 0 338 133" fill="none" xmlns="http://www.w3.org/2000/svg">
<path d="M180.928 7.448L148.72 131H112.288L92.576 49.688L72.16 131H35.728L4.4 7.448H36.608L54.384 97.384L76.384 7.448H109.472L130.592 97.384L148.544 7.448H180.928ZM240.725 132.408C231.104 132.408 222.421 130.355 214.677 126.248C207.051 122.141 201.008 116.275 196.549 108.648C192.208 101.021 190.037 92.104 190.037 81.896C190.037 71.8053 192.267 62.9467 196.725 55.32C201.184 47.576 207.285 41.6507 215.029 37.544C222.773 33.4373 231.456 31.384 241.077 31.384C250.699 31.384 259.381 33.4373 267.125 37.544C274.869 41.6507 280.971 47.576 285.429 55.32C289.888 62.9467 292.117 71.8053 292.117 81.896C292.117 91.9867 289.829 100.904 285.253 108.648C280.795 116.275 274.635 122.141 266.773 126.248C259.029 130.355 250.347 132.408 240.725 132.408ZM240.725 106.36C246.475 106.36 251.344 104.248 255.333 100.024C259.44 95.8 261.493 89.7573 261.493 81.896C261.493 74.0347 259.499 67.992 255.509 63.768C251.637 59.544 246.827 57.432 241.077 57.432C235.211 57.432 230.341 59.544 226.469 63.768C222.597 67.8747 220.661 73.9173 220.661 81.896C220.661 89.7573 222.539 95.8 226.293 100.024C230.165 104.248 234.976 106.36 240.725 106.36ZM338.18 49.16C341.7 43.7627 346.1 39.5387 351.38 36.488C356.66 33.32 362.527 31.736 368.98 31.736V63.592H360.708C353.199 63.592 347.567 65.2347 343.812 68.52C340.057 71.688 338.18 77.32 338.18 85.416V131H308.084V32.792H338.18V49.16ZM443.381 131L413.461 89.816V131H383.365V0.759998H413.461V72.744L443.205 32.792H480.341L439.509 82.072L480.693 131H443.381Z" fill="#AEE2E6"/>
</svg>
