<svg width="272" height="128" viewBox="0 0 272 128" fill="none" xmlns="http://www.w3.org/2000/svg">
<path d="M55.616 127.232C46.5813 127.232 38.4853 125.765 31.328 122.832C24.1707 119.899 18.4213 115.557 14.08 109.808C9.856 104.059 7.62667 97.136 7.392 89.04H39.424C39.8933 93.616 41.4773 97.136 44.176 99.6C46.8747 101.947 50.3947 103.12 54.736 103.12C59.1947 103.12 62.7147 102.123 65.296 100.128C67.8773 98.016 69.168 95.1413 69.168 91.504C69.168 88.4533 68.112 85.9307 66 83.936C64.0053 81.9413 61.4827 80.2987 58.432 79.008C55.4987 77.7173 51.2747 76.2507 45.76 74.608C37.7813 72.144 31.2693 69.68 26.224 67.216C21.1787 64.752 16.8373 61.1147 13.2 56.304C9.56267 51.4933 7.744 45.216 7.744 37.472C7.744 25.9733 11.9093 16.9973 20.24 10.544C28.5707 3.97333 39.424 0.687998 52.8 0.687998C66.4107 0.687998 77.3813 3.97333 85.712 10.544C94.0427 16.9973 98.5013 26.032 99.088 37.648H66.528C66.2933 33.6587 64.8267 30.5493 62.128 28.32C59.4293 25.9733 55.968 24.8 51.744 24.8C48.1067 24.8 45.1733 25.7973 42.944 27.792C40.7147 29.6693 39.6 32.4267 39.6 36.064C39.6 40.0533 41.4773 43.1627 45.232 45.392C48.9867 47.6213 54.8533 50.0267 62.832 52.608C70.8107 55.3067 77.264 57.888 82.192 60.352C87.2373 62.816 91.5787 66.3947 95.216 71.088C98.8533 75.7813 100.672 81.824 100.672 89.216C100.672 96.256 98.8533 102.651 95.216 108.4C91.696 114.149 86.5333 118.725 79.728 122.128C72.9227 125.531 64.8853 127.232 55.616 127.232ZM190.825 126L149.289 71.44V126H119.193V2.448H149.289V56.656L190.473 2.448H225.849L177.977 62.992L227.609 126H190.825ZM272.008 2.448V126H241.912V2.448H272.008ZM323.914 102.768H363.338V126H293.818V2.448H323.914V102.768ZM407.789 102.768H447.213V126H377.693V2.448H407.789V102.768ZM506.272 127.232C497.238 127.232 489.142 125.765 481.984 122.832C474.827 119.899 469.078 115.557 464.736 109.808C460.512 104.059 458.283 97.136 458.048 89.04H490.08C490.55 93.616 492.134 97.136 494.832 99.6C497.531 101.947 501.051 103.12 505.392 103.12C509.851 103.12 513.371 102.123 515.952 100.128C518.534 98.016 519.824 95.1413 519.824 91.504C519.824 88.4533 518.768 85.9307 516.656 83.936C514.662 81.9413 512.139 80.2987 509.088 79.008C506.155 77.7173 501.931 76.2507 496.416 74.608C488.438 72.144 481.926 69.68 476.88 67.216C471.835 64.752 467.494 61.1147 463.856 56.304C460.219 51.4933 458.4 45.216 458.4 37.472C458.4 25.9733 462.566 16.9973 470.896 10.544C479.227 3.97333 490.08 0.687998 503.456 0.687998C517.067 0.687998 528.038 3.97333 536.368 10.544C544.699 16.9973 549.158 26.032 549.744 37.648H517.184C516.95 33.6587 515.483 30.5493 512.784 28.32C510.086 25.9733 506.624 24.8 502.4 24.8C498.763 24.8 495.83 25.7973 493.6 27.792C491.371 29.6693 490.256 32.4267 490.256 36.064C490.256 40.0533 492.134 43.1627 495.888 45.392C499.643 47.6213 505.51 50.0267 513.488 52.608C521.467 55.3067 527.92 57.888 532.848 60.352C537.894 62.816 542.235 66.3947 545.872 71.088C549.51 75.7813 551.328 81.824 551.328 89.216C551.328 96.256 549.51 102.651 545.872 108.4C542.352 114.149 537.19 118.725 530.384 122.128C523.579 125.531 515.542 127.232 506.272 127.232Z" fill="#AEE2E6"/>
</svg>
