<svg width="353" height="133" viewBox="0 0 353 133" fill="none" xmlns="http://www.w3.org/2000/svg">
<path d="M85.824 109.176H39.712L32.32 131H0.816L45.52 7.448H80.368L125.072 131H93.216L85.824 109.176ZM78.08 85.944L62.768 40.712L47.632 85.944H78.08ZM168.774 46.696C171.59 42.12 175.638 38.424 180.918 35.608C186.198 32.792 192.24 31.384 199.046 31.384C207.142 31.384 214.475 33.4373 221.046 37.544C227.616 41.6507 232.779 47.5173 236.534 55.144C240.406 62.7707 242.342 71.6293 242.342 81.72C242.342 91.8107 240.406 100.728 236.534 108.472C232.779 116.099 227.616 122.024 221.046 126.248C214.475 130.355 207.142 132.408 199.046 132.408C192.123 132.408 186.08 131.059 180.918 128.36C175.755 125.544 171.707 121.848 168.774 117.272V131H138.678V0.759998H168.774V46.696ZM211.718 81.72C211.718 74.2107 209.606 68.344 205.382 64.12C201.275 59.7787 196.171 57.608 190.07 57.608C184.086 57.608 178.982 59.7787 174.758 64.12C170.651 68.4613 168.598 74.3867 168.598 81.896C168.598 89.4053 170.651 95.3307 174.758 99.672C178.982 104.013 184.086 106.184 190.07 106.184C196.054 106.184 201.158 104.013 205.382 99.672C209.606 95.2133 211.718 89.2293 211.718 81.72ZM302.835 132.408C293.213 132.408 284.531 130.355 276.787 126.248C269.16 122.141 263.117 116.275 258.659 108.648C254.317 101.021 252.147 92.104 252.147 81.896C252.147 71.8053 254.376 62.9467 258.835 55.32C263.293 47.576 269.395 41.6507 277.139 37.544C284.883 33.4373 293.565 31.384 303.187 31.384C312.808 31.384 321.491 33.4373 329.235 37.544C336.979 41.6507 343.08 47.576 347.539 55.32C351.997 62.9467 354.227 71.8053 354.227 81.896C354.227 91.9867 351.939 100.904 347.363 108.648C342.904 116.275 336.744 122.141 328.883 126.248C321.139 130.355 312.456 132.408 302.835 132.408ZM302.835 106.36C308.584 106.36 313.453 104.248 317.443 100.024C321.549 95.8 323.603 89.7573 323.603 81.896C323.603 74.0347 321.608 67.992 317.619 63.768C313.747 59.544 308.936 57.432 303.187 57.432C297.32 57.432 292.451 59.544 288.579 63.768C284.707 67.8747 282.771 73.9173 282.771 81.896C282.771 89.7573 284.648 95.8 288.403 100.024C292.275 104.248 297.085 106.36 302.835 106.36ZM467.169 32.792V131H437.073V117.624C434.023 121.965 429.857 125.485 424.577 128.184C419.415 130.765 413.665 132.056 407.329 132.056C399.82 132.056 393.191 130.413 387.441 127.128C381.692 123.725 377.233 118.856 374.065 112.52C370.897 106.184 369.313 98.7333 369.313 90.168V32.792H399.233V86.12C399.233 92.6907 400.935 97.7947 404.337 101.432C407.74 105.069 412.316 106.888 418.065 106.888C423.932 106.888 428.567 105.069 431.969 101.432C435.372 97.7947 437.073 92.6907 437.073 86.12V32.792H467.169ZM543.523 105.48V131H528.211C517.299 131 508.792 128.36 502.691 123.08C496.59 117.683 493.539 108.941 493.539 96.856V57.784H481.571V32.792H493.539V8.856H523.635V32.792H543.347V57.784H523.635V97.208C523.635 100.141 524.339 102.253 525.747 103.544C527.155 104.835 529.502 105.48 532.787 105.48H543.523Z" fill="#AEE2E6"/>
</svg>
